<svg width="12" height="12" viewBox="0 0 12 12" version="1.1" xmlns="http://www.w3.org/2000/svg" xmlns:xlink="http://www.w3.org/1999/xlink"><title>Path</title><desc>Created with Sketch.</desc><g id="Symbols" stroke="none" stroke-width="1" fill="none" fill-rule="evenodd"><g id="icons-/-close" fill="#E1E7EE"><path d="M10.2791745,0.2925 L5.97848655,4.5925 L1.7398374,0.3525 C1.34859287,-0.0375 0.714196373,-0.0375 0.324953096,0.3525 C-0.0662914321,0.7425 -0.0662914321,1.3825 0.324953096,1.7725 L4.56360225,6.0025 L0.294934334,10.2725 C-0.0983114447,10.6625 -0.0983114447,11.3025 0.294934334,11.7025 C0.689180738,12.0925 1.32757974,12.0925 1.72182614,11.7025 L5.99049406,7.4325 L10.2291432,11.6725 C10.6203877,12.0625 11.2547842,12.0625 11.6450281,11.6725 C12.0362727,11.2825 12.0362727,10.6425 11.6450281,10.2525 L7.40537836,6.0225 L11.7050657,1.7225 C12.0983114,1.3225 12.0983114,0.6925 11.7050657,0.2925 C11.3108193,-0.0975 10.6734209,-0.0975 10.2791745,0.2925 Z" id="Path"/></g></g></svg>