<svg width="11" height="10" viewBox="0 0 11 10" version="1.1" xmlns="http://www.w3.org/2000/svg" xmlns:xlink="http://www.w3.org/1999/xlink"><title>heart</title><desc>Created with Sketch.</desc><g id="Page-1" stroke="none" stroke-width="1" fill="none" fill-rule="evenodd"><g id="Main-00" transform="translate(-175.000000, -1903.000000)" fill="#FFF"><g id="Group-19" transform="translate(175.000000, 1844.000000)"><g id="Group-20" transform="translate(0.000000, 52.000000)"><path d="M3.76056983,7 L3.76056983,7 C2.80712267,7 1.90073128,7.35537459 1.20820023,8.0009772 C0.448493018,8.70912052 0.0197987728,9.6723127 0.000651944238,10.7130293 C-0.0184948843,11.7390879 0.384886605,12.7433225 1.10662468,13.4677524 L4.01110121,16.3872964 C4.40409798,16.7824104 4.92690376,17 5.48313535,17 C6.03482363,17 6.5547087,16.7856678 6.9467319,16.3957655 L9.88690591,13.4742671 C10.6151344,12.7433225 11.0181914,11.7390879 10.9993691,10.7130293 C10.9802223,9.6723127 10.5512035,8.70912052 9.79149629,8.0009772 C9.09896524,7.35537459 8.19257385,7 7.23945121,7 C6.63421672,7 6.03612172,7.14723127 5.50001052,7.41954397 C4.9635748,7.147557 4.36580432,7 3.76056983,7 M3.84342083,9 C4.33794437,9 4.83463146,9.19216533 5.20830581,9.56508328 C5.20830581,9.56508328 5.29175666,9.72301049 5.5000747,9.72301049 C5.70839274,9.72301049 5.79184359,9.56508328 5.79184359,9.56508328 C6.16520887,9.19216533 6.66220503,9 7.15672857,9 C7.60581776,9 8.05305249,9.15854411 8.40447328,9.48426897 C9.18118432,10.2041949 9.19818357,11.4216533 8.45516195,12.1631709 L5.65492238,14.9299815 C5.60763357,14.9768661 5.54581813,15 5.48400269,15 C5.42187817,15 5.35944457,14.9762492 5.31215575,14.9290561 L2.54498745,12.1631709 C1.80196583,11.4216533 1.818656,10.2041949 2.59536704,9.48426897 C2.94709691,9.15854411 3.39433164,9 3.84342083,9" id="heart"/></g></g></g></g></svg>