<svg width="21" height="21" viewBox="0 0 21 21" version="1.1" xmlns="http://www.w3.org/2000/svg" xmlns:xlink="http://www.w3.org/1999/xlink"><title>instagram</title><desc>Created with Sketch.</desc><g id="Page-1" stroke="none" stroke-width="1" fill="none" fill-rule="evenodd"><g id="Main-00" transform="translate(-655.000000, -2417.000000)"><g id="Group-21" transform="translate(0.000000, 2282.000000)"><g id="Stacked-Group-2" transform="translate(583.000000, 122.000000)"><g id="instagram" transform="translate(60.000000, 0.000000)"><rect id="Rectangle" x="0" y="0" width="44" height="44"/><path d="M28.9414981,13 L16.0585019,13 C13.8212018,13 12,14.8199671 12,17.0585019 L12,29.9414981 C12,32.1800329 13.8212018,34 16.0585019,34 L28.9414981,34 C31.1787982,34 33,32.1800329 33,29.9414981 L33,17.0585019 C33,14.8199671 31.1787982,13 28.9414981,13 L28.9414981,13 Z M30.1058325,15.4212723 L30.5700847,15.4188029 L30.5700847,18.9784807 L27.0215193,18.9895931 L27.0091722,15.4299153 L30.1058325,15.4212723 L30.1058325,15.4212723 Z M19.5033514,21.344191 C20.1750353,20.4132173 21.2665216,19.803269 22.5,19.803269 C23.7334784,19.803269 24.8249647,20.4132173 25.4966486,21.344191 C25.9349718,21.9516698 26.196731,22.6949671 26.196731,23.5 C26.196731,25.5372766 24.5385113,27.1954962 22.5,27.1954962 C20.4627234,27.1954962 18.8045038,25.5372766 18.8045038,23.5 C18.8045038,22.6949671 19.0662629,21.9516698 19.5033514,21.344191 L19.5033514,21.344191 Z M30.9540804,29.9414981 C30.9540804,31.0515052 30.0515052,31.9540804 28.9414981,31.9540804 L16.0585019,31.9540804 C14.9484948,31.9540804 14.0459196,31.0515052 14.0459196,29.9414981 L14.0459196,21.344191 L17.1820908,21.344191 C16.9104539,22.010936 16.7585842,22.738182 16.7585842,23.5 C16.7585842,26.6658043 19.3341957,29.2426505 22.5,29.2426505 C25.667039,29.2426505 28.2426505,26.6658043 28.2426505,23.5 C28.2426505,22.738182 28.0883114,22.010936 27.8191439,21.344191 L30.9540804,21.344191 L30.9540804,29.9414981 L30.9540804,29.9414981 Z" id="Shape" fill="#E34A6F"/></g></g></g></g></g></svg>