<svg width="161" height="15" viewBox="0 0 161 15" version="1.1" xmlns="http://www.w3.org/2000/svg" xmlns:xlink="http://www.w3.org/1999/xlink"><title>LOGO</title><desc>Created with Sketch.</desc><g id="Page-1" stroke="none" stroke-width="1" fill="none" fill-rule="evenodd"><g id="Main-00" transform="translate(-560.000000, -2338.000000)" fill="#384A60"><g id="Group-21" transform="translate(0.000000, 2282.000000)"><g id="LOGO" transform="translate(560.000000, 56.000000)"><path d="M44.4699198,0 L44.4699198,0 C43.0830875,0 41.7647,0.533061889 40.7573822,1.5014658 C39.6523535,2.56368078 39.0287982,4.00846906 39.0009483,5.56954397 C38.9730984,7.10863192 39.5598351,8.61498371 40.6096359,9.70162866 L44.834329,14.0809446 C45.4059607,14.6736156 46.1664055,15 46.9754696,15 C47.7779253,15 48.5341217,14.6785016 49.1043373,14.0936482 L53.3809541,9.71140065 C54.4401955,8.61498371 55.0264602,7.10863192 54.9990823,5.56954397 C54.9712324,4.00846906 54.3472051,2.56368078 53.2421764,1.5014658 C52.2348585,0.533061889 50.9164711,0 49.5301109,0 C48.6497698,0 47.7798134,0.220846906 47.0000153,0.629315961 C46.2197452,0.221335505 45.3502608,0 44.4699198,0 M44.4699198,2.74788274 C45.2251722,2.74788274 45.9837288,3.05228013 46.5544164,3.64299674 C46.5544164,3.64299674 46.6818652,3.89315961 47.0000153,3.89315961 C47.3181654,3.89315961 47.4456142,3.64299674 47.4456142,3.64299674 C48.0158298,3.05228013 48.7748585,2.74788274 49.5301109,2.74788274 C50.2159744,2.74788274 50.8990058,2.9990228 51.4357071,3.51498371 C52.6219254,4.65537459 52.6478872,6.58387622 51.5131204,7.75846906 L47.2365037,12.1412052 C47.1642827,12.2154723 47.0698762,12.2521173 46.9754696,12.2521173 C46.880591,12.2521173 46.7852404,12.2144951 46.7130194,12.1397394 L42.4869102,7.75846906 C41.3521434,6.58387622 41.3776332,4.65537459 42.5638515,3.51498371 C43.1010248,2.9990228 43.7840562,2.74788274 44.4699198,2.74788274" id="Fill-1"/><path d="M153.49547,0 C149.714625,0 146.638915,3.08030418 146.638915,6.86646388 C146.638915,7.59011407 146.74834,8.29505703 146.96492,8.97171103 C146.822803,9.55117871 146.499068,10.5814449 146.169431,11.4862357 C145.803923,12.4886692 146.042298,13.6412167 146.763777,14.3593916 C147.188311,14.7819011 147.725448,15 148.267125,15 C148.6458,15 149.026745,14.8932319 149.373182,14.6755894 C150.143699,14.1905703 151.062235,13.6859316 151.568951,13.4596198 C152.191903,13.6412167 152.837557,13.7329278 153.49547,13.7329278 C157.276315,13.7329278 160.352026,10.6526236 160.352026,6.86646388 C160.352026,3.08030418 157.276315,0 153.49547,0 M153.49547,2.54737643 C156.030866,2.54737643 158.08588,4.48106464 158.08588,6.86646388 C158.08588,9.25186312 156.030866,11.1855513 153.49547,11.1855513 C152.861622,11.1855513 152.25774,11.0646388 151.708798,10.8460837 C151.677922,10.8342205 151.639782,10.828289 151.595286,10.828289 C150.845655,10.828289 148.265763,12.4530798 148.265763,12.4530798 C148.265763,12.4530798 149.734603,9.58768061 149.501224,9.06980989 C149.267844,8.55193916 148.905061,7.46463878 148.905061,6.86646388 C148.905061,4.48106464 150.960075,2.54737643 153.49547,2.54737643" id="Fill-3"/><path d="M9.71768107,2.03789947 C9.71768107,2.8328248 9.15291473,3.5463305 8.26079974,3.5463305 C7.37074032,3.5463305 6.67493175,2.93544243 5.3701622,2.93544243 C4.43590814,2.93544243 3.5879878,3.40372571 3.5879878,4.2598362 C3.5879878,6.3594026 10.8487554,5.01477437 10.8487554,10.2723623 C10.8487554,13.1861249 8.28186928,15 5.2833146,15 C3.60905733,15 0,14.6333708 0,12.7183234 C0,11.9233981 0.566308013,11.2710776 1.45636743,11.2710776 C2.47798298,11.2710776 3.69590493,12.0660029 5.10807773,12.0660029 C6.54388951,12.0660029 7.3260318,11.3110647 7.3260318,10.3137948 C7.3260318,7.9092661 0.0652641722,9.35458487 0.0652641722,4.62646539 C0.0652641722,1.77388791 2.56637225,0 5.4570098,0 C6.67493175,0 9.71768107,0.42829613 9.71768107,2.03789947" id="Fill-6"/><path d="M23.459651,7.18542174 L25.8129771,7.18542174 C27.2649945,7.18542174 28.1870229,6.22588398 28.1870229,4.97250938 C28.1870229,3.71864094 27.2649945,2.75762165 25.8129771,2.75762165 L23.459651,2.75762165 L23.459651,7.18542174 Z M20,1.62968328 C20,0.646441035 20.6461287,0 21.7993457,0 L25.8805889,0 C29.2726281,0 31.7857143,2.00549812 31.7857143,4.99275696 C31.7857143,8.04273392 29.1804798,9.94452492 26.0196292,9.94452492 L23.459651,9.94452492 L23.459651,13.3703167 C23.459651,14.4147955 22.721374,15 21.7300981,15 C20.738277,15 20,14.4147955 20,13.3703167 L20,1.62968328 Z" id="Fill-9"/><path d="M64,1.61611545 C64,0.580332365 64.6327349,0 65.4823007,0 C65.857549,0 66.470657,0.310490058 66.7281436,0.683176075 L72.9947428,9.44643965 L73.0349313,9.44643965 L73.0349313,1.61611545 C73.0349313,0.580332365 73.665797,0 74.5176993,0 C75.3672651,0 76,0.580332365 76,1.61611545 L76,13.3838846 C76,14.4196676 75.3672651,15 74.5176993,15 C74.1410491,15 73.5485027,14.6880407 73.2713891,14.314865 L67.0052572,5.65640406 L66.9650687,5.65640406 L66.9650687,13.3838846 C66.9650687,14.4196676 66.3323338,15 65.4823007,15 C64.6327349,15 64,14.4196676 64,13.3838846 L64,1.61611545 Z" id="Fill-11"/><path d="M95.7176811,2.03789947 C95.7176811,2.8328248 95.1529147,3.5463305 94.2607997,3.5463305 C93.3707403,3.5463305 92.6749317,2.93544243 91.3701622,2.93544243 C90.4359081,2.93544243 89.5879878,3.40372571 89.5879878,4.2598362 C89.5879878,6.3594026 96.8487554,5.01477437 96.8487554,10.2723623 C96.8487554,13.1861249 94.2818693,15 91.2833146,15 C89.6090573,15 86,14.6333708 86,12.7183234 C86,11.9233981 86.566308,11.2710776 87.4563674,11.2710776 C88.477983,11.2710776 89.6959049,12.0660029 91.1080777,12.0660029 C92.5438895,12.0660029 93.3260318,11.3110647 93.3260318,10.3137948 C93.3260318,7.9092661 86.0652642,9.35458487 86.0652642,4.62646539 C86.0652642,1.77388791 88.5663722,0 91.4570098,0 C92.6749317,0 95.7176811,0.42829613 95.7176811,2.03789947" id="Fill-13"/><path d="M107,1.83223215 C107,0.778910322 107.593484,0 108.852884,0 L114.741686,0 C115.883175,0 116.428372,0.715661211 116.428372,1.4532355 C116.428372,2.17039078 115.859593,2.90796507 114.741686,2.90796507 L110.56259,2.90796507 L110.56259,5.9837644 L114.457577,5.9837644 C115.622087,5.9837644 116.19255,6.69892759 116.19255,7.43650188 C116.19255,8.15365716 115.59682,8.88973738 114.457577,8.88973738 L110.56259,8.88973738 L110.56259,12.092533 L114.956733,12.092533 C116.095976,12.092533 116.642857,12.8096882 116.642857,13.5472625 C116.642857,14.2624257 116.072393,15 114.956733,15 L108.827617,15 C107.783265,15 107,14.369003 107,13.4202663 L107,1.83223215 Z" id="Fill-16"/><path d="M130.169922,6.57969249 L132.346651,6.57969249 C133.508207,6.57969249 134.312053,5.89075824 134.312053,4.7203108 C134.312053,3.52961512 133.508207,2.8831528 132.346651,2.8831528 L130.169922,2.8831528 L130.169922,6.57969249 Z M127,1.62924308 C127,0.625720212 127.569537,0 128.626177,0 L132.346651,0 C135.601005,0 137.609371,1.44058868 137.609371,4.7203108 C137.609371,7.01873374 135.855797,8.33536365 133.699551,8.66871893 L137.292629,12.4724262 C137.588388,12.7855332 137.714286,13.0981464 137.714286,13.3910052 C137.714286,14.2058736 137.060318,15 136.129075,15 C135.748884,15 135.241297,14.8538175 134.904071,14.4557666 L130.211388,8.83712508 L130.169922,8.83712508 L130.169922,13.3707569 C130.169922,14.4147763 129.493472,15 128.585211,15 C127.67645,15 127,14.4147763 127,13.3707569 L127,1.62924308 Z" id="Fill-18"/></g></g></g></g></svg>