<svg width="51" height="52" viewBox="0 0 51 52" version="1.1" xmlns="http://www.w3.org/2000/svg" xmlns:xlink="http://www.w3.org/1999/xlink"><title>noun_37748_cc</title><desc>Created with Sketch.</desc><g id="Page-1" stroke="none" stroke-width="1" fill="none" fill-rule="evenodd"><g id="Form-01-Sent" transform="translate(-615.000000, -112.000000)" stroke-width="1.5" stroke="#E34A6F"><g id="Group-3" transform="translate(338.000000, 65.000000)"><g id="noun_37748_cc" transform="translate(277.000000, 48.000000)"><g id="Group-2"><rect id="Rectangle" x=".75" y="25.75" width="8.5" height="24.5" rx="2"/><path d="M12,27 L12,49 C18,49 22,49 24,49 C27,49 36,51 45,48 C48,46 46,44 47,43 C48,42 48,42 49,40 C50,37 48,37 49,35 C49.7644431,33.8533354 50.5591996,31.5057886 50,30 C49.5981942,28.9180346 48.8168272,28.5763118 49,28 C49.2288576,27.2799514 50,26.1272104 50,25 C50,23 48,20 42,20 C36,20 33,21 34,16 C35,11 36,6 35,3 C34,-1.3781493e-15 31.9460441,0 31.0939421,0 C30.2418402,0 28,13 26,16 C24,19 20,22 17,24 C15.754101,24.8305993 14.0874344,25.8305993 12,27 Z" id="Path-3"/></g></g></g></g></g></svg>