<svg width="220" height="30" viewBox="0 0 220 30" version="1.1" xmlns="http://www.w3.org/2000/svg" xmlns:xlink="http://www.w3.org/1999/xlink"><title>Step 4</title><desc>Created with Sketch.</desc><g id="Page-1" stroke="none" stroke-width="1" fill="none" fill-rule="evenodd"><g id="Main-00" transform="translate(-270.000000, -1418.000000)"><g id="Group-23" transform="translate(270.000000, 847.000000)"><g id="Group-22" transform="translate(0.000000, 568.000000)"><g id="Step-4" transform="translate(0.000000, 3.000000)"><g id="Group-17"><text id="Где-найти-лучших-бло" opacity=".9" font-family="Roboto-Regular, Roboto" font-size="14" font-weight="normal" line-spacing="20" fill="#384A60"><tspan x="25" y="13">Где найти лучших блогеров</tspan></text><rect id="insertion-mark" fill="#A9B2BD" x="205" y="0" width="1" height="18"/><g id="icons-/-search" transform="translate(1.000000, 1.000000)" fill="#E34A6F"><path d="M6.73173553,12.2288215 C3.5859245,12.2288215 1.03576703,9.72303845 1.03576703,6.62707096 C1.03576703,3.53110347 3.5859245,1.02031885 6.73173553,1.02031885 C9.87754655,1.02031885 12.4282041,3.53110347 12.4282041,6.62707096 C12.4282041,9.72303845 9.87754655,12.2288215 6.73173553,12.2288215 L6.73173553,12.2288215 Z M15.8480858,15.129728 L11.7175209,11.0634573 C12.7987997,9.88809003 13.4634711,8.3376055 13.4634711,6.62707096 C13.4634711,2.96592685 10.4496941,0 6.73173553,0 C3.01377699,0 0,2.96592685 0,6.62707096 C0,10.2832135 3.01377699,13.2491404 6.73173553,13.2491404 C8.33814968,13.2491404 9.81152953,12.6939669 10.9688279,11.7686777 L15.1158971,15.8499531 C15.3184493,16.0500156 15.6460337,16.0500156 15.8480858,15.8499531 C16.0506381,15.6548922 16.0506381,15.3297906 15.8480858,15.129728 L15.8480858,15.129728 Z" id="Fill-19"/></g><rect id="Rectangle" fill="#E34A6F" x="0" y="29" width="220" height="1"/></g></g></g></g></g></g></svg>