<svg width="20" height="20" viewBox="0 0 20 20" version="1.1" xmlns="http://www.w3.org/2000/svg" xmlns:xlink="http://www.w3.org/1999/xlink"><title>user / white</title><desc>Created with Sketch.</desc><g id="Page-1" stroke="none" stroke-width="1" fill="none" fill-rule="evenodd"><g id="Main-00" transform="translate(-998.000000, -50.000000)"><g id="//-HEADER"><g id="LOGIN" transform="translate(984.000000, 40.000000)"><g id="user-/-white" transform="translate(12.000000, 8.000000)"><g id="Username"><rect id="Rectangle" x="0" y="0" width="24" height="24"/><path d="M12,3.25 C11.4661432,3.25 10.9388047,3.35091045 10.4179688,3.55273438 C9.89713281,3.7545583 9.4283875,4.01171719 9.01171875,4.32421875 C8.59505,4.63672031 8.25976689,4.97525859 8.00585938,5.33984375 C7.75195186,5.70442891 7.625,6.04947754 7.625,6.375 L7.625,9.5 C7.625,10.1119822 7.77799326,10.8932244 8.08398438,11.84375 C8.38997549,12.7942756 8.86848633,13.5299453 9.51953125,14.0507812 C9.68880293,14.1809902 9.81575479,14.3470042 9.90039062,14.5488281 C9.98502646,14.7506521 10.014323,14.9622385 9.98828125,15.1835938 C9.94921855,15.3919281 9.86783916,15.5839835 9.74414062,15.7597656 C9.62044209,15.9355478 9.46093848,16.06901 9.265625,16.1601562 L3.77734375,18.7578125 C3.69921836,18.7838543 3.59179756,18.8457026 3.45507812,18.9433594 C3.31835869,19.0410161 3.25,19.2200508 3.25,19.4804688 L3.25,20.75 L20.7304688,20.7304688 L20.7304688,19.5195312 C20.7304688,19.1809879 20.6490894,18.9694015 20.4863281,18.8847656 C20.3235669,18.8001298 20.2356771,18.7578125 20.2226562,18.7578125 L14.7734375,16.1796875 C14.578124,16.0885412 14.4153652,15.955079 14.2851562,15.7792969 C14.1549473,15.6035147 14.076823,15.404949 14.0507812,15.1835938 C14.0247395,14.9622385 14.054036,14.7506521 14.1386719,14.5488281 C14.2233077,14.3470042 14.3502596,14.1809902 14.5195312,14.0507812 C15.196618,13.5299453 15.6751288,12.7910204 15.9550781,11.8339844 C16.2350274,10.8769483 16.375,10.0989613 16.375,9.5 L16.375,6.375 C16.375,6.03645664 16.244793,5.68489766 15.984375,5.3203125 C15.723957,4.95572734 15.3886739,4.62044424 14.9785156,4.31445312 C14.5683573,4.00846201 14.099612,3.7545583 13.5722656,3.55273438 C13.0449192,3.35091045 12.5208359,3.25 12,3.25 Z M12,2 C12.6901076,2 13.3704394,2.13020703 14.0410156,2.390625 C14.7115919,2.65104297 15.3105442,2.98958125 15.8378906,3.40625 C16.365237,3.82291875 16.7949202,4.29166406 17.1269531,4.8125 C17.458986,5.33333594 17.625,5.85416406 17.625,6.375 L17.625,9.5 C17.625,9.87760605 17.5859379,10.3137996 17.5078125,10.8085938 C17.4296871,11.3033879 17.2994801,11.8079401 17.1171875,12.3222656 C16.9348949,12.8365911 16.6940119,13.3313778 16.3945312,13.8066406 C16.0950506,14.2819034 15.7304709,14.6888004 15.3007812,15.0273438 L20.75,17.625 L21.3652344,17.9667969 C21.7753927,18.1946626 21.9804688,18.4908836 21.9804688,18.8554688 L21.9804688,20.75 C21.9804688,21.0885434 21.8600272,21.378254 21.6191406,21.6191406 C21.378254,21.8600272 21.0885434,21.9804688 20.75,21.9804688 L3.25,21.9804688 C2.89843574,21.9804688 2.60221475,21.8600272 2.36132812,21.6191406 C2.1204415,21.378254 2,21.0885434 2,20.75 L2,18.8554688 C2,18.5169254 2.20833125,18.2272147 2.625,17.9863281 L3.25,17.625 L8.73828125,15.0273438 C8.2955707,14.6757795 7.92448066,14.2526066 7.625,13.7578125 C7.32551934,13.2630184 7.08138115,12.7584661 6.89257812,12.2441406 C6.7037751,11.7298151 6.57031289,11.2285181 6.4921875,10.7402344 C6.41406211,10.2519507 6.375,9.83854336 6.375,9.5 L6.375,6.375 C6.375,5.85416406 6.53775879,5.33333594 6.86328125,4.8125 C7.18880371,4.29166406 7.61523174,3.82291875 8.14257812,3.40625 C8.66992451,2.98958125 9.27213203,2.65104297 9.94921875,2.390625 C10.6263055,2.13020703 11.3098924,2 12,2 Z" id="User---simple-line-icons" fill="#FFF"/></g></g></g></g></g></g></svg>